# xmcd
#
# Track frame offsets: 
#        150
#        23210
#        40793
#        52717
#        74712
#        89799
#        101850
#        114609
#        128439
#        144684
#        155149
#        169950
#        185240
#        198901
#        216885
#
# Disc length: 3158 seconds
#
# Revision: 2
# Processed by: cddbd v1.5.2PL0 Copyright (c) Steve Scherf et al.
# Submitted via: ExactAudioCopy v0.99pb5
#
DISCID=e60c540f
DTITLE=Alfredo Zitarrosa - Alfredo Zitarrosa - Antologia 1 (1936 - 198
DTITLE=9)
DYEAR=1994
DGENRE=Folklore
TTITLE0=Diez Décimas De Saludo Al Pueblo Argentino
TTITLE1=El Violín De Becho
TTITLE2=Milonga Mas Triste
TTITLE3=Pollera Azul De Lino
TTITLE4=Mi Tierra En Invierno
TTITLE5=Los Hermanos
TTITLE6=Tanta Vida En Cuatro Versos
TTITLE7=La Canción Quiere
TTITLE8=Los Boliches
TTITLE9=Tierrita Poca
TTITLE10=Para Carla Moriana
TTITLE11=Poeta Al Sur
TTITLE12=María De Las Esquinas
TTITLE13=Defensa Del Cantor
TTITLE14=Milonga de Do
EXTD=
EXTT0=
EXTT1=
EXTT2=
EXTT3=
EXTT4=
EXTT5=
EXTT6=
EXTT7=
EXTT8=
EXTT9=
EXTT10=
EXTT11=
EXTT12=
EXTT13=
EXTT14=
PLAYORDER=
